<?xml version="1.0" encoding="UTF-8"?>
<svg id="Layer_1" data-name="Layer 1" xmlns="http://www.w3.org/2000/svg" xmlns:xlink="http://www.w3.org/1999/xlink" viewBox="0 0 24.7642 26.4373">
  <g id="logoMark">
    <a xlink:href="66.1921568627451">
      <path id="logoMark_PathItem_" data-name="logoMark &amp;lt;PathItem&amp;gt;" d="M13.9597,1.9197h0c0,1.0602-.8595,1.9197-1.9197,1.9197H5.596c-.8719,0-1.5786,.7068-1.5786,1.5786V14.3727c0,1.1094-.8993,2.0087-2.0087,2.0087h0c-1.1094,0-2.0087-.8993-2.0087-2.0087V4.8009C0,2.1494,2.1494,0,4.8009,0h7.239c1.0602,0,1.9197,.8595,1.9197,1.9197Z" style="fill: #304cef;"/>
    </a>
    <a xlink:href="66.1921568627451">
      <path id="logoMark_PathItem_-2" data-name="logoMark &amp;lt;PathItem&amp;gt;" d="M24.7642,9.7891v15.9378c0,.5034-.5094,.8467-.976,.6579l-5.5658-2.253c-.2067-.0654-.4221-.0987-.6389-.0987h-7.4713c-1.1692,0-2.117-.9478-2.117-2.117V9.7891c0-1.1692,.9478-2.117,2.117-2.117h12.535c1.1692,0,2.117,.9478,2.117,2.117Z" style="fill: #304cef;"/>
    </a>
  </g>
</svg>